<svg xmlns="http://www.w3.org/2000/svg" viewBox="0 0 36 36">
  <path d="m22.4200078 15.1933448c.5521151.2106459 1.0056007.6180189 1.2742948 1.1421098l.0371185.0756555c.2652219.5154056.3979469 1.1162564.3981747 1.8025524 0 .5001394-.0546849.9295301-.1640548 1.2881722-.0929981.324152-.2351194.6321392-.4214159.9132385-.3745918.5149499-.8508065.8349707-1.4286441.9600625-.5082491.1399134-1.043255.1516563-1.5571537.0341781-.5231526-.1159776-.9408088-.3144384-1.2529687-.5953823-.327654-.2813996-.5617739-.6600928-.7023598-1.1360797-.1411669-.482894-.2118478-.9836457-.2099339-1.4867468.0008316-.4275592.0599355-.8530154.1757559-1.2645893.1171169-.4217576.3005393-.7731084.5502672-1.0540523.4046686-.4671005.9273655-.7441709 1.5680907-.8312111s1.2183349-.0363427 1.7328291.1520925zm-17.79718127-.1907137c.87427552 0 1.52992519.148105 1.96694902.4443151.4529736.3128435.67934647.7499812.67911896 1.3114133v2.1310038c0 .6247755-.11312981 1.1127247-.33938876 1.4638476s-.49558229.6049521-.80797002.7614878c-.32415345.1705577-.6778116.2778499-1.04208993.3161473-.32267139.0362061-.64699821.0557136-.97168306.0584445-.56234349 0-1.05416619-.1522064-1.4754681-.4566192-.42130191-.3044129-.63206679-.80797-.63229464-1.5106716 0-.6555357.19128337-1.1238894.57385011-1.4050612.38256674-.2811717.870402-.4684677 1.46350576-.5618878.07093492-.0012135.14163077-.0079599.21144598-.0201613l.06949791-.0140168c.10891418-.0227853.23423384-.0422669.37595898-.0584445.68697959-.0936479 1.03046938-.2966658 1.03046938-.6090535 0-.2342339-.12099044-.3864403-.36297131-.4566193-.21647855-.0661457-.44116949-.1015809-.66749807-.1052685-.19900823-.0030965-.39702762.0285958-.58512888.093648-.16910283.0591184-.30554577.1866305-.37595898.3513507h-1.56911605c.05397034-.4690002.28954505-.8981879.6562193-1.1955495.42107406-.35887 1.02192486-.5383049 1.8025524-.5383049zm26.73110587 0c.8738198 0 1.5294694.148105 1.966949.4443151.4527457.3130713.6791186.750323.6791186 1.3117551v2.1310038c0 .6247755-.1131295 1.1127246-.3393884 1.4638475-.226259.3511229-.4955823.6048383-.80797.7611461-.3241916.1704649-.6778315.2777515-1.04209.3161473-.3227856.0362069-.6472263.0557144-.9720248.0584445-.5618878 0-1.0535966-.1522064-1.4751263-.4566192-.4215298-.3044129-.6322947-.80797-.6322947-1.5106716 0-.6555357.1911695-1.1238894.5735084-1.4050612.3823388-.2811717.870288-.4684677 1.4638475-.5618878.0709349-.0012135.1416308-.0079599.211446-.0201613l.0694979-.0140168c.109142-.0227853.2344617-.0422669.375959-.0584445.6869796-.0936479 1.0304693-.2966658 1.0304693-.6090535 0-.2342339-.1209904-.3864403-.3629713-.4566193-.2164785-.0661457-.4411695-.1015809-.667498-.1052685-.1991202-.0031013-.3972527.0285906-.5854707.093648-.1690804.0591554-.3055104.1866554-.375959.3513507h-1.569116c.053777-.4689821.2892453-.8981995.6558775-1.1955495.4215298-.35887 1.0226084-.5383049 1.803236-.5383049zm-21.62848775.070065v3.9810638c0 .3745919.10925595.6480166.32776785.8202742.2125951.1698617.4774238.2609154.7495255.2577027.2753411.0019483.5433261-.0888247.7608043-.2577027.2262589-.171574.3395023-.4449988.3397302-.8202742v-3.1847143c-.0034844-.2088928.0763297-.4105801.2218158-.5605206.148105-.1569914.3393884-.235601.5738501-.2358289h.8202741v3.6536377c0 1.1087372-.2888048 1.8346798-.8664145 2.1778279-.5731679.3422248-1.2293431.5203971-1.896884.5150638-.6510034-.0250543-1.28435551-.2186636-1.83809759-.5618878-.55528002-.3433759-.83292003-1.0537105-.83292003-2.1310039v-3.6536377zm8.12361905.05843v1.6627786h-.539672c-.4532015 0-.7889443.109256-1.0072283.3277679-.2182841.2185119-.32754.5620017-.3277679 1.0304693v3.2082972h-1.6391811v-3.0210012c0-.6088257.0897744-1.1201299.2693233-1.5339127.1795489-.4137827.4257451-.745538.7385885-.9952659.3087418-.2401287.6628632-.4153292 1.0410646-.5150638.4009243-.1096149.814773-.1647947 1.2304112-.1640694zm10.3380409 0v1.6627786h-.539672c-.4527458 0-.7883746.109256-1.0068865.3277679s-.3277679.5620017-.3277679 1.0304693v3.2082972h-1.6391811v-3.0210012c0-.6088257.0896605-1.1201299.2689815-1.5339127.1793211-.4137827.4252894-.745538.737905-.9952659.3090008-.2403241.663498-.415538 1.0420899-.5150638.4009243-.1096149.8147729-.1647947 1.2304112-.1640694zm-22.44152785 3.1030433c-.21896762.1093698-.52338046.2108788-.91323853.3045267l-.53864668.1168891c-.2813996.0781539-.48441745.1796628-.60905354.3045268-.10315434.1522811-.16001439.3311706-.16371305.5150638 0 .2342338.07017901.4216437.21053703.5622295.14035802.1250918.34337586.1875238.60905354.1872972.43679598 0 .78017184-.1253209 1.0301276-.3759602.24995575-.2506393.37527541-.5941291.37595897-1.0304694zm26.73110585 0c-.2187398.1093698-.5231526.2108788-.9132386.3045267l-.5369377.1168891c-.2809439.0781539-.4838478.1796628-.6087118.3045268-.1032399.1522607-.1602161.3311424-.1640548.5150638 0 .2342338.0702929.4216437.2108788.5622295.140358.1250918.3432619.1875238.6087118.1872972.4370238 0 .7805136-.1253209 1.0304693-.3759602.2499558-.2506393.3752754-.5941291.375959-1.0304694zm-11.5318011-1.8093881c-.2344617.0683562-.4063775.1585864-.5154056.2676145-.3276539.3590978-.475759.893757-.4443151 1.6039777.0314438.7102207.1641687 1.2059169.3981747 1.4870886.093648.1250918.2575889.2304743.4918227.3161473.2291503.085698.4800857.0938624.714322.0232411.2419809-.070179.4566193-.2457404.6439152-.5266843.187296-.2809439.2888049-.7336896.3045268-1.3582373 0-.5621156-.0897744-.9836453-.2693233-1.2645892s-.3866681-.4599232-.6213577-.5369378c-.2270218-.0779269-.4728842-.0819947-.7023597-.0116206z" fill="#FFFFFF"/>
</svg>